<svg t="1724140541488" class="icon" viewBox="0 0 1024 1024" version="1.1" xmlns="http://www.w3.org/2000/svg" p-id="3791" width="200" height="200"><path d="M735.968 800L288 800.256V672h447.968v128zM288 223.744L288.032 224 736 223.744 735.968 608H288V223.744zM735.968 160H288.032A63.968 63.968 0 0 0 224 223.744v576.512C224 835.392 252.704 864 288.032 864h447.936A63.968 63.968 0 0 0 800 800.256V223.744A63.968 63.968 0 0 0 735.968 160z" fill="#3E3A39" p-id="3792"></path><path d="M480 768h64a32 32 0 0 0 0-64h-64a32 32 0 0 0 0 64" fill="#3E3A39" p-id="3793"></path></svg>